<?xml version="1.0" encoding="utf-8"?>
<svg contentScriptType="text/ecmascript" contentStyleType="text/css" height="2304.0" preserveAspectRatio="none" version="1.1" viewBox="0.0 0.0 4799.000 3600.000" width="3071.9998" xmlns="http://www.w3.org/2000/svg" xmlns:xlink="http://www.w3.org/1999/xlink" zoomAndPan="magnify">
 <title>
  Produce by Acme CAD Converter
 </title>
 <desc>
  Produce by Acme CAD Converter
 </desc>
 <!-- ENL-SVG-Conversion 0.05333333333 ft -->
 <g display="visible" id="enl-area-nav-opening">
  <g>
   <path d="M1936.66 775.93L1936.63 888.4" fill="none" stroke="black" stroke-width="1"/>
  </g>
  <g>
   <path d="M1489.46 975.09L1545.7 975.09" fill="none" stroke="black" stroke-width="1"/>
  </g>
  <g>
   <path d="M1305.12 1236.76L1305.12 1292.99" fill="none" stroke="black" stroke-width="1"/>
  </g>
  <g>
   <path d="M1983.89 1088.25L2040.12 1088.25" fill="none" stroke="black" stroke-width="1"/>
  </g>
  <g>
   <path d="M1953.87 671.25L2010.1 671.25" fill="none" stroke="black" stroke-width="1"/>
  </g>
  <g>
   <path d="M3090.88 994.66L3090.88 938.42" fill="none" stroke="black" stroke-width="1"/>
  </g>
  <g>
   <path d="M3180.75 667.34L3236.99 667.34" fill="none" stroke="black" stroke-width="1"/>
  </g>
  <g>
   <path d="M1775.78 667.34L1888.25 667.34" fill="none" stroke="black" stroke-width="1"/>
  </g>
  <g>
   <path d="M3107.28 1067.85L3163.51 1067.85" fill="none" stroke="black" stroke-width="1"/>
  </g>
  <g>
   <path d="M2012.7 2806.55L2068.93 2806.55" fill="none" stroke="black" stroke-width="1"/>
  </g>
  <g>
   <path d="M3739.09 1238.23L3739.09 1294.47" fill="none" stroke="black" stroke-width="1"/>
  </g>
  <g>
   <path d="M3342.78 1067.85L3455.26 1067.85" fill="none" stroke="black" stroke-width="1"/>
  </g>
  <g>
   <path d="M3739.09 1480.56L3739.09 1536.8" fill="none" stroke="black" stroke-width="1"/>
  </g>
  <g>
   <path d="M3638.72 690.78L3638.72 765.76" fill="none" stroke="black" stroke-width="1"/>
  </g>
  <g>
   <path d="M3655.11 1067.85L3711.35 1067.85" fill="none" stroke="black" stroke-width="1"/>
  </g>
  <g>
   <path d="M3739.09 1561L3739.09 1617.23" fill="none" stroke="black" stroke-width="1"/>
  </g>
  <g>
   <path d="M4079.22 1164.21L4079.22 1220.45" fill="none" stroke="black" stroke-width="1"/>
  </g>
  <g>
   <path d="M3671.99 2274.53L3671.77 2330.98" fill="none" stroke="black" stroke-width="1"/>
  </g>
  <g>
   <path d="M3738.5 2623.48L3850.98 2623.48" fill="none" stroke="black" stroke-width="1"/>
  </g>
  <g>
   <path d="M3322.66 2797.95L3378.9 2797.95" fill="none" stroke="black" stroke-width="1"/>
  </g>
  <g>
   <path d="M3739.09 1896.58L3739.09 1952.82" fill="none" stroke="black" stroke-width="1"/>
  </g>
  <g>
   <path d="M2298.81 2946.65L2355.05 2946.65" fill="none" stroke="black" stroke-width="1"/>
  </g>
  <g>
   <path d="M1171.55 1850.79L1227.79 1850.79" fill="none" stroke="black" stroke-width="1"/>
  </g>
  <g>
   <path d="M3072.71 2797.95L3128.95 2797.95" fill="none" stroke="black" stroke-width="1"/>
  </g>
  <g>
   <path d="M3623.83 2368.26L3567.59 2368.26" fill="none" stroke="black" stroke-width="1"/>
  </g>
  <g>
   <path d="M1516.71 2806.55L1572.94 2806.55" fill="none" stroke="black" stroke-width="1"/>
  </g>
  <g>
   <path d="M2568.53 2955.05L2568.53 3011.29" fill="none" stroke="black" stroke-width="1"/>
  </g>
  <g>
   <path d="M1279.93 2806.55L1336.17 2806.55" fill="none" stroke="black" stroke-width="1"/>
  </g>
  <g>
   <path d="M1673.01 2088.14L1752.65 2089.7" fill="none" stroke="black" stroke-width="1"/>
  </g>
  <g>
   <path d="M1097.35 2183.24L1097.35 2239.48" fill="none" stroke="black" stroke-width="1"/>
  </g>
  <g>
   <path d="M1764.41 2806.55L1820.65 2806.55" fill="none" stroke="black" stroke-width="1"/>
  </g>
  <g>
   <path d="M1673.01 1850.79L1752.68 1850.79" fill="none" stroke="black" stroke-width="1"/>
  </g>
  <g>
   <path d="M2568.53 1509.45L2568.53 1604.75" fill="none" stroke="black" stroke-width="1"/>
  </g>
  <g>
   <path d="M2388.1 1850.79L2444.34 1850.79" fill="none" stroke="black" stroke-width="1"/>
  </g>
  <g>
   <path d="M1110.63 1348.84L1110.63 1405.08" fill="none" stroke="black" stroke-width="1"/>
  </g>
  <g>
   <path d="M3061.69 1968.16L3061.69 2023.62" fill="none" stroke="black" stroke-width="1"/>
  </g>
  <g>
   <path d="M2726.3 2376.85L2782.54 2376.85" fill="none" stroke="black" stroke-width="1"/>
  </g>
  <g>
   <path d="M2997.65 2376.85L3053.89 2376.85" fill="none" stroke="black" stroke-width="1"/>
  </g>
  <g>
   <path d="M2524.89 2249.73L2524.89 2305.97" fill="none" stroke="black" stroke-width="1"/>
  </g>
  <g>
   <path d="M2182.77 2161.56L2232.63 2161.56" fill="none" stroke="black" stroke-width="1"/>
  </g>
  <g>
   <path d="M2645.87 2376.85L2702.1 2376.85" fill="none" stroke="black" stroke-width="1"/>
  </g>
  <g>
   <path d="M2374.92 2099.08L2374.92 2155.31" fill="none" stroke="black" stroke-width="1"/>
  </g>
  <g>
   <path d="M2524.89 1968.54L2524.89 2024.77" fill="none" stroke="black" stroke-width="1"/>
  </g>
  <g>
   <path d="M2179.64 2145.94L2179.64 2089.7" fill="none" stroke="black" stroke-width="1"/>
  </g>
  <g>
   <path d="M2076.74 2489.02L2076.74 2545.26" fill="none" stroke="black" stroke-width="1"/>
  </g>
  <g>
   <path d="M2374.92 2407.94L2374.92 2464.18" fill="none" stroke="black" stroke-width="1"/>
  </g>
  <g>
   <path d="M2504.49 2481.22L2564.63 2481.22" fill="none" stroke="black" stroke-width="1"/>
  </g>
  <g>
   <path d="M2577.12 2501.34L2577.12 2614.01" fill="none" stroke="black" stroke-width="1"/>
  </g>
  <g>
   <path d="M3000.08 2821.07L3056.32 2821.07" fill="none" stroke="black" stroke-width="1"/>
  </g>
  <g>
   <path d="M2840.74 2821.07L2896.98 2821.07" fill="none" stroke="black" stroke-width="1"/>
  </g>
  <g>
   <path d="M2633.36 2821.07L2577.12 2821.07" fill="none" stroke="black" stroke-width="1"/>
  </g>
 </g>
 <g display="visible" id="enl-area-nav-walkable">
  <g>
   <path d="M1110.63 2088.14L1110.63 2088.14" fill="none" stroke="black" stroke-width="1"/>
  </g>
  <g>
   <path d="M1305.12 1236.76L1297.31 1236.76M1297.31 1236.76L1297.31 967.28M1297.31 967.28L1334.22 967.28M1334.22 967.28L1334.22 680.62M1334.22 680.62L1110.63 680.62M1110.63 680.62L1110.63 1300.8M1110.63 1300.8L1297.31 1300.8M1297.31 1300.8L1297.31 1292.99M1297.31 1292.99L1305.12 1292.99M1305.12 1292.99L1305.12 1236.76" fill="none" stroke="black" stroke-width="1"/>
  </g>
  <g>
   <path d="M4066.36 1553.19L3747.68 1553.19M3747.68 1553.19L3747.68 1561M3747.68 1561L3739.09 1561M3739.09 1561L3739.09 1617.23M3739.09 1617.23L3747.68 1617.23M3747.68 1617.23L3747.68 1818.37M3747.68 1818.37L4066.36 1818.37M4066.36 1818.37L4066.36 1553.19" fill="none" stroke="black" stroke-width="1"/>
  </g>
  <g>
   <path d="M3739.09 1238.23L3739.09 1067.85M3739.09 1067.85L3711.35 1067.85M3711.35 1067.85L3655.11 1067.85M3655.11 1067.85L3455.26 1067.85M3455.26 1067.85L3342.78 1067.85M3342.78 1067.85L3163.51 1067.85M3163.51 1067.85L3107.28 1067.85M3107.28 1067.85L3099.47 1067.85M3099.47 1067.85L3099.47 1086.59M3099.47 1086.59L3107.28 1086.59M3107.28 1086.59L3107.28 1108.28M3107.28 1108.28L3085.59 1108.28M3085.59 1108.28L3085.59 1086.59M3085.59 1086.59L3090.88 1086.59M3090.88 1086.59L3090.88 994.66M3090.88 994.66L3090.88 938.42M3090.88 938.42L3090.88 680.62M3090.88 680.62L2568.53 680.62M2568.53 680.62L2083.86 680.62M2083.86 680.62L2083.86 1386.63M2083.86 1386.63L2577.12 1386.63M2577.12 1386.63L2577.12 1509.45M2577.12 1509.45L2568.53 1509.45M2568.53 1509.45L2568.53 1604.75M2568.53 1604.75L2577.12 1604.75M2577.12 1604.75L2577.12 1850.79M2577.12 1850.79L3070.28 1850.79M3070.28 1850.79L3070.28 1968.16M3070.28 1968.16L3061.69 1968.16M3061.69 1968.16L3061.69 2023.62M3061.69 2023.62L3070.28 2023.62M3070.28 2023.62L3070.28 2376.85M3070.28 2376.85L3053.89 2376.85M3053.89 2376.85L2997.65 2376.85M2997.65 2376.85L2782.54 2376.85M2782.54 2376.85L2726.3 2376.85M2726.3 2376.85L2702.1 2376.85M2702.1 2376.85L2645.87 2376.85M2645.87 2376.85L2577.12 2376.85M2577.12 2376.85L2577.12 2501.34M2577.12 2501.34L2577.12 2614.01M2577.12 2614.01L2577.12 2821.07M2577.12 2821.07L2633.36 2821.07M2633.36 2821.07L2840.74 2821.07M2840.74 2821.07L2896.98 2821.07M2896.98 2821.07L3000.08 2821.07M3000.08 2821.07L3056.32 2821.07M3056.32 2821.07L3056.32 2797.95M3056.32 2797.95L3072.71 2797.95M3072.71 2797.95L3128.95 2797.95M3128.95 2797.95L3322.66 2797.95M3322.66 2797.95L3378.9 2797.95M3378.9 2797.95L3541.76 2797.95M3541.76 2797.95L3541.76 2368.26M3541.76 2368.26L3567.59 2368.26M3567.59 2368.26L3623.83 2368.26M3623.83 2368.26L3671.99 2368.26M3671.99 2368.26L3671.99 2094.19M3671.99 2094.19L3739.09 2094.19M3739.09 2094.19L3739.09 2083.65M3739.09 2083.65L3739.09 1952.82M3739.09 1952.82L3739.09 1896.58M3739.09 1896.58L3739.09 1862.99M3739.09 1862.99L3739.09 1617.23M3739.09 1617.23L3739.09 1561M3739.09 1561L3739.09 1536.8M3739.09 1536.8L3739.09 1480.56M3739.09 1480.56L3739.09 1294.47M3739.09 1294.47L3739.09 1238.23" fill="none" stroke="black" stroke-width="1"/>
  </g>
  <g>
   <path d="M2076.05 680.62L2010.1 680.62M2010.1 680.62L2010.1 671.25M2010.1 671.25L1953.87 671.25M1953.87 671.25L1953.87 680.62M1953.87 680.62L1950.74 680.62M1950.74 680.62L1944.52 680.62M1944.52 680.62L1944.47 775.93M1944.47 775.93L1936.66 775.93M1936.66 775.93L1936.63 888.4M1936.63 888.4L1944.44 888.4M1944.44 888.4L1944.44 967.51M1944.44 967.51L1949.52 967.51M1949.52 967.51L1949.52 1080.44M1949.52 1080.44L1983.89 1080.44M1983.89 1080.44L1983.89 1088.25M1983.89 1088.25L2040.12 1088.25M2040.12 1088.25L2040.12 1080.44M2040.12 1080.44L2076.05 1080.44M2076.05 1080.44L2076.05 680.62" fill="none" stroke="black" stroke-width="1"/>
  </g>
  <g>
   <path d="M2076.74 2815.14L2068.93 2815.14M2068.93 2815.14L2068.93 2806.55M2068.93 2806.55L2012.7 2806.55M2012.7 2806.55L2012.7 2815.14M2012.7 2815.14L1837.04 2815.14M1837.04 2815.14L1837.04 3033.16M1837.04 3033.16L2076.74 3033.16M2076.74 3033.16L2076.74 2815.14" fill="none" stroke="black" stroke-width="1"/>
  </g>
  <g>
   <path d="M2076.05 1088.25L2040.12 1088.25M2040.12 1088.25L1983.89 1088.25M1983.89 1088.25L1941.71 1088.25M1941.71 1088.25L1941.71 975.09M1941.71 975.09L1545.7 975.09M1545.7 975.09L1489.46 975.09M1489.46 975.09L1305.12 975.09M1305.12 975.09L1305.12 1236.76M1305.12 1236.76L1305.12 1292.99M1305.12 1292.99L1305.12 1308.62M1305.12 1308.62L1110.63 1308.62M1110.63 1308.62L1110.63 1345.72M1110.63 1345.72L1110.63 1850.79M1110.63 1850.79L1171.55 1850.79M1171.55 1850.79L1227.79 1850.79M1227.79 1850.79L1673.01 1850.79M1673.01 1850.79L1752.68 1850.79M1752.68 1850.79L2388.1 1850.79M2388.1 1850.79L2444.34 1850.79M2444.34 1850.79L2568.53 1850.79M2568.53 1850.79L2568.53 1605.53M2568.53 1605.53L2568.53 1509.45M2568.53 1509.45L2568.53 1395.22M2568.53 1395.22L2092.07 1395.22M2092.07 1395.22L2092.07 1465.52M2092.07 1465.52L2095.19 1465.52M2095.19 1465.52L2095.19 1483.48M2095.19 1483.48L2076.05 1483.48M2076.05 1483.48L2076.05 1088.25" fill="none" stroke="black" stroke-width="1"/>
  </g>
  <g>
   <path d="M3638.72 765.76L3638.72 690.78M3638.72 690.78L3638.72 680.62M3638.72 680.62L3499.45 680.62M3499.45 680.62L3499.45 677.15M3499.45 677.15L3274.5 677.15M3274.5 677.15L3274.5 680.62M3274.5 680.62L3258.03 680.62M3258.03 680.62L3258.03 782.94M3258.03 782.94L3174.07 782.94M3174.07 782.94L3174.07 774.35M3174.07 774.35L3249.44 774.35M3249.44 774.35L3249.44 680.62M3249.44 680.62L3236.99 680.62M3236.99 680.62L3236.99 667.34M3236.99 667.34L3180.75 667.34M3180.75 667.34L3180.75 680.62M3180.75 680.62L3099.47 680.62M3099.47 680.62L3099.47 938.42M3099.47 938.42L3090.88 938.42M3090.88 938.42L3090.88 994.66M3090.88 994.66L3099.47 994.66M3099.47 994.66L3099.47 1059.25M3099.47 1059.25L3107.28 1059.25M3107.28 1059.25L3107.28 1067.85M3107.28 1067.85L3163.51 1067.85M3163.51 1067.85L3163.51 1059.25M3163.51 1059.25L3174.07 1059.25M3174.07 1059.25L3174.07 996.28M3174.07 996.28L3182.66 996.28M3182.66 996.28L3182.66 1059.25M3182.66 1059.25L3342.78 1059.25M3342.78 1059.25L3342.78 1067.85M3342.78 1067.85L3455.26 1067.85M3455.26 1067.85L3455.26 1059.25M3455.26 1059.25L3638.72 1059.25M3638.72 1059.25L3638.72 765.76" fill="none" stroke="black" stroke-width="1"/>
  </g>
  <g>
   <path d="M1936.66 775.93L1936.71 680.62M1936.71 680.62L1888.25 680.62M1888.25 680.62L1888.25 667.34M1888.25 667.34L1775.78 667.34M1775.78 667.34L1775.78 680.62M1775.78 680.62L1342.03 680.62M1342.03 680.62L1342.03 967.2M1342.03 967.2L1489.46 967.28M1489.46 967.28L1489.46 975.09M1489.46 975.09L1545.7 975.09M1545.7 975.09L1545.7 967.31M1545.7 967.31L1936.63 967.51M1936.63 967.51L1936.63 888.4M1936.63 888.4L1936.66 775.93" fill="none" stroke="black" stroke-width="1"/>
  </g>
  <g>
   <path d="M2568.53 2614.01L2577.12 2614.01M2577.12 2614.01L2577.12 2501.34M2577.12 2501.34L2568.53 2501.34M2568.53 2501.34L2568.53 2481.22M2568.53 2481.22L2560.73 2481.22M2560.73 2481.22L2504.49 2481.22M2504.49 2481.22L2085.33 2481.22M2085.33 2481.22L2085.33 2489.02M2085.33 2489.02L2076.74 2489.02M2076.74 2489.02L2076.74 2545.26M2076.74 2545.26L2085.33 2545.26M2085.33 2545.26L2085.33 2933.37M2085.33 2933.37L2298.81 2933.37M2298.81 2933.37L2298.81 2946.65M2298.81 2946.65L2355.05 2946.65M2355.05 2946.65L2355.05 2933.37M2355.05 2933.37L2568.53 2933.37M2568.53 2933.37L2568.53 2614.01" fill="none" stroke="black" stroke-width="1"/>
  </g>
  <g>
   <path d="M4066.36 680.62L3647.31 680.62M3647.31 680.62L3647.31 690.78M3647.31 690.78L3638.72 690.78M3638.72 690.78L3638.72 765.76M3638.72 765.76L3647.31 765.76M3647.31 765.76L3647.31 1059.25M3647.31 1059.25L3655.11 1059.25M3655.11 1059.25L3655.11 1067.85M3655.11 1067.85L3711.35 1067.85M3711.35 1067.85L3711.35 1059.25M3711.35 1059.25L4066.36 1059.25M4066.36 1059.25L4066.36 680.62" fill="none" stroke="black" stroke-width="1"/>
  </g>
  <g>
   <path d="M4079.22 1164.21L4066.36 1164.21M4066.36 1164.21L4066.36 1067.85M4066.36 1067.85L3747.68 1067.85M3747.68 1067.85L3747.68 1238.23M3747.68 1238.23L3739.09 1238.23M3739.09 1238.23L3739.09 1294.47M3739.09 1294.47L3747.68 1294.47M3747.68 1294.47L3747.68 1302.27M3747.68 1302.27L4066.36 1302.27M4066.36 1302.27L4066.36 1220.45M4066.36 1220.45L4079.22 1220.45M4079.22 1220.45L4079.22 1164.21" fill="none" stroke="black" stroke-width="1"/>
  </g>
  <g>
   <path d="M4066.36 1310.86L3747.68 1310.86M3747.68 1310.86L3747.68 1480.56M3747.68 1480.56L3739.09 1480.56M3739.09 1480.56L3739.09 1536.8M3739.09 1536.8L3747.68 1536.8M3747.68 1536.8L3747.68 1544.6M3747.68 1544.6L4066.36 1544.6M4066.36 1544.6L4066.36 1310.86" fill="none" stroke="black" stroke-width="1"/>
  </g>
  <g>
   <path d="M4066.36 2376.85L3623.83 2376.85M3623.83 2376.85L3623.83 2368.26M3623.83 2368.26L3567.59 2368.26M3567.59 2368.26L3567.59 2376.85M3567.59 2376.85L3555.04 2376.85M3555.04 2376.85L3555.04 2610.2M3555.04 2610.2L3738.5 2610.2M3738.5 2610.2L3738.5 2623.48M3738.5 2623.48L3850.98 2623.48M3850.98 2623.48L3850.98 2610.2M3850.98 2610.2L4066.36 2610.2M4066.36 2610.2L4066.36 2376.85" fill="none" stroke="black" stroke-width="1"/>
  </g>
  <g>
   <path d="M2524.89 2034.15L2524.89 2024.77M2524.89 2024.77L2524.89 1968.54M2524.89 1968.54L2524.89 1965.41M2524.89 1965.41L2524.89 1949.79M2524.89 1949.79L2577.12 1949.79M2577.12 1949.79L2577.12 1988.2M2577.12 1988.2L2633.36 1988.2M2633.36 1988.2L2633.36 2003.49M2633.36 2003.49L2828.53 2003.49M2828.53 2003.49L2828.53 2040.98M2828.53 2040.98L3061.69 2040.98M3061.69 2040.98L3061.69 2023.62M3061.69 2023.62L3061.69 1968.16M3061.69 1968.16L3061.69 1858.6M3061.69 1858.6L2444.34 1858.6M2444.34 1858.6L2444.34 1850.79M2444.34 1850.79L2388.1 1850.79M2388.1 1850.79L2388.1 1858.6M2388.1 1858.6L1752.68 1858.6M1752.68 1858.6L1752.68 1850.79M1752.68 1850.79L1673.01 1850.79M1673.01 1850.79L1673.01 1858.6M1673.01 1858.6L1254.35 1858.6M1254.35 1858.6L1254.35 2080.33M1254.35 2080.33L1673.01 2080.33M1673.01 2080.33L1673.01 2088.14M1673.01 2088.14L1752.65 2089.7M1752.65 2089.7L1752.68 2080.33M1752.68 2080.33L1977.64 2080.33M1977.64 2080.33L1977.64 1949.78M1977.64 1949.78L1987.01 1949.78M1987.01 1949.78L1987.01 2080.33M1987.01 2080.33L2374.92 2080.33M2374.92 2080.33L2374.92 2099.08M2374.92 2099.08L2374.92 2155.31M2374.92 2155.31L2374.92 2158.44M2374.92 2158.44L2374.92 2399.01M2374.92 2399.01L2374.92 2407.94M2374.92 2407.94L2374.92 2464.18M2374.92 2464.18L2374.92 2472.63M2374.92 2472.63L2504.49 2472.63M2504.49 2472.63L2504.49 2481.22M2504.49 2481.22L2560.73 2481.22M2560.73 2481.22L2560.73 2472.63M2560.73 2472.63L2568.53 2472.63M2568.53 2472.63L2568.53 2376.85M2568.53 2376.85L2524.89 2376.85M2524.89 2376.85L2524.89 2305.97M2524.89 2305.97L2524.89 2249.73M2524.89 2249.73L2524.89 2246.6M2524.89 2246.6L2524.89 2071.64M2524.89 2071.64L2524.89 2034.15" fill="none" stroke="black" stroke-width="1"/>
  </g>
  <g>
   <path d="M3541.76 2806.55L3378.9 2806.55M3378.9 2806.55L3378.9 2797.95M3378.9 2797.95L3322.66 2797.95M3322.66 2797.95L3322.66 2806.55M3322.66 2806.55L3314.86 2806.55M3314.86 2806.55L3314.86 3033.16M3314.86 3033.16L3541.76 3033.16M3541.76 3033.16L3541.76 2806.55" fill="none" stroke="black" stroke-width="1"/>
  </g>
  <g>
   <path d="M4066.36 1826.96L3747.68 1826.96M3747.68 1826.96L3747.68 1862.99M3747.68 1862.99L3739.09 1862.99M3739.09 1862.99L3739.09 1896.58M3739.09 1896.58L3739.09 1952.82M3739.09 1952.82L3739.09 2083.65M3739.09 2083.65L3745.33 2083.65M3745.33 2083.65L3745.33 2089.9M3745.33 2089.9L4066.36 2089.9M4066.36 2089.9L4066.36 1826.96" fill="none" stroke="black" stroke-width="1"/>
  </g>
  <g>
   <path d="M3306.27 2806.55L3128.95 2806.55M3128.95 2806.55L3128.95 2797.95M3128.95 2797.95L3072.71 2797.95M3072.71 2797.95L3072.71 2806.55M3072.71 2806.55L3064.91 2806.55M3064.91 2806.55L3064.91 3033.16M3064.91 3033.16L3306.27 3033.16M3306.27 3033.16L3306.27 2806.55" fill="none" stroke="black" stroke-width="1"/>
  </g>
  <g>
   <path d="M1828.45 2815.14L1820.65 2815.14M1820.65 2815.14L1820.65 2806.55M1820.65 2806.55L1764.41 2806.55M1764.41 2806.55L1764.41 2815.14M1764.41 2815.14L1589.34 2815.14M1589.34 2815.14L1589.34 3033.16M1589.34 3033.16L1828.45 3033.16M1828.45 3033.16L1828.45 2815.14" fill="none" stroke="black" stroke-width="1"/>
  </g>
  <g>
   <path d="M1580.75 2815.14L1572.94 2815.14M1572.94 2815.14L1572.94 2806.55M1572.94 2806.55L1516.71 2806.55M1516.71 2806.55L1516.71 2815.14M1516.71 2815.14L1352.56 2815.14M1352.56 2815.14L1352.56 3033.16M1352.56 3033.16L1580.75 3033.16M1580.75 3033.16L1580.75 2815.14" fill="none" stroke="black" stroke-width="1"/>
  </g>
  <g>
   <path d="M2245.26 2161.56L2232.63 2161.56M2232.63 2161.56L2182.77 2161.56M2182.77 2161.56L2179.64 2161.56M2179.64 2161.56L2179.64 2263.1M2179.64 2263.1L2245.26 2263.1M2245.26 2263.1L2245.26 2161.56" fill="none" stroke="black" stroke-width="1"/>
  </g>
  <g>
   <path d="M2374.92 2099.08L2365.54 2099.08M2365.54 2099.08L2365.54 2095.95M2365.54 2095.95L2365.54 2089.7M2365.54 2089.7L2179.64 2089.7M2179.64 2089.7L2179.64 2145.94M2179.64 2145.94L2179.64 2160M2179.64 2160L2182.77 2160M2182.77 2160L2182.77 2161.56M2182.77 2161.56L2232.63 2161.56M2232.63 2161.56L2232.63 2160M2232.63 2160L2245.26 2160M2245.26 2160L2254.63 2160M2254.63 2160L2254.63 2225.62M2254.63 2225.62L2365.54 2225.61M2365.54 2225.61L2365.54 2155.31M2365.54 2155.31L2374.92 2155.31M2374.92 2155.31L2374.92 2099.08" fill="none" stroke="black" stroke-width="1"/>
  </g>
  <g>
   <path d="M1343.97 2815.14L1336.17 2815.14M1336.17 2815.14L1336.17 2806.55M1336.17 2806.55L1279.93 2806.55M1279.93 2806.55L1279.93 2815.14M1279.93 2815.14L1110.63 2815.14M1110.63 2815.14L1110.63 3033.16M1110.63 3033.16L1343.97 3033.16M1343.97 3033.16L1343.97 2815.14" fill="none" stroke="black" stroke-width="1"/>
  </g>
  <g>
   <path d="M2178.08 2145.94L2179.64 2145.94M2179.64 2145.94L2179.64 2089.7M2179.64 2089.7L2157.29 2089.7M2157.29 2089.7L2157.29 2097.17M2157.29 2097.17L2155.72 2097.17M2155.72 2097.17L2155.72 2089.7M2155.72 2089.7L2085.33 2089.7M2085.33 2089.7L2085.33 2263.1M2085.33 2263.1L2178.08 2263.1M2178.08 2263.1L2178.08 2145.94" fill="none" stroke="black" stroke-width="1"/>
  </g>
  <g>
   <path d="M4066.36 2098.49L3745.33 2098.49M3745.33 2098.49L3745.33 2104.74M3745.33 2104.74L3739.09 2104.74M3739.09 2104.74L3739.09 2098.49M3739.09 2098.49L3739.09 2094.19M3739.09 2094.19L3671.99 2094.19M3671.99 2094.19L3671.99 2368.26M3671.99 2368.26L4066.36 2368.26M4066.36 2368.26L4066.36 2098.49" fill="none" stroke="black" stroke-width="1"/>
  </g>
  <g>
   <path d="M2076.74 2472.63L2015.42 2472.63M2015.42 2472.63L2015.42 2481.22M2015.42 2481.22L2076.6 2481.22M2076.6 2481.22L2076.74 2806.55M2076.74 2806.55L1228.87 2806.55M1228.87 2806.55L1228.87 2581.2M1228.87 2581.2L1224.18 2581.2M1224.18 2581.2L1224.18 2806.55M1224.18 2806.55L1110.63 2806.55M1110.63 2806.55L1110.63 2489.03M1110.63 2489.03L1190.3 2489.03M1190.3 2489.03L1190.3 2254.9M1190.3 2254.9L1151.65 2254.9M1151.65 2254.9L1151.65 2259.59M1151.65 2259.59L1185.61 2259.59M1185.61 2259.59L1185.61 2484.35M1185.61 2484.35L1110.63 2484.35M1110.63 2484.35L1110.63 2303.08M1110.63 2303.08L1151.65 2303.08M1151.65 2303.08L1151.65 2298.39M1151.65 2298.39L1110.63 2298.28M1110.63 2298.28L1110.63 2239.48M1110.63 2239.48L1097.35 2239.48M1097.35 2239.48L1097.35 2183.24M1097.35 2183.24L1110.63 2183.24M1110.63 2183.24L1110.63 2088.14M1110.63 2088.14L1673.01 2088.14M1673.01 2088.14L1752.68 2089.7M1752.68 2089.7L2076.74 2089.7M2076.74 2089.7L2076.74 2472.63" fill="none" stroke="black" stroke-width="1"/>
  </g>
  <g>
   <path d="M1246.54 1858.6L1227.79 1858.6M1227.79 1858.6L1227.79 1850.79M1227.79 1850.79L1171.55 1850.79M1171.55 1850.79L1171.55 1858.6M1171.55 1858.6L1110.63 1858.6M1110.63 1858.6L1110.63 2080.33M1110.63 2080.33L1246.54 2080.33M1246.54 2080.33L1246.54 1858.6" fill="none" stroke="black" stroke-width="1"/>
  </g>
  <g>
   <path d="M2568.53 2955.05L2568.53 3011.29M2568.53 3011.29L2577.12 3011.29M2577.12 3011.29L2577.12 3033.16M2577.12 3033.16L2733.34 3033.16M2733.34 3033.16L2733.34 2825.76M2733.34 2825.76L2633.36 2825.76M2633.36 2825.76L2633.36 2821.07M2633.36 2821.07L2577.12 2821.07M2577.12 2821.07L2577.12 2955.05M2577.12 2955.05L2568.53 2955.05" fill="none" stroke="black" stroke-width="1"/>
  </g>
  <g>
   <path d="M2738.02 2825.76L2738.02 3033.16M2738.02 3033.16L2896.98 3033.16M2896.98 3033.16L2896.98 2821.07M2896.98 2821.07L2840.74 2821.07M2840.74 2821.07L2840.74 2825.76M2840.74 2825.76L2738.02 2825.76" fill="none" stroke="black" stroke-width="1"/>
  </g>
  <g>
   <path d="M2901.66 2825.76L2901.66 3033.16M2901.66 3033.16L3056.32 3033.16M3056.32 3033.16L3056.32 2821.07M3056.32 2821.07L3000.08 2821.07M3000.08 2821.07L3000.08 2825.76M3000.08 2825.76L2901.66 2825.76" fill="none" stroke="black" stroke-width="1"/>
  </g>
  <g>
   <path d="M2524.89 1968.54L2534.26 1968.54M2534.26 1968.54L2534.26 1959.16M2534.26 1959.16L2569.31 1959.16M2569.31 1959.16L2569.31 2049.57M2569.31 2049.57L2709.91 2049.57M2709.91 2049.57L2709.91 2201.73M2709.91 2201.73L2700.53 2201.73M2700.53 2201.73L2700.53 2230.98M2700.53 2230.98L2637.36 2230.98M2637.36 2230.98L2637.36 2240.35M2637.36 2240.35L2709.91 2240.35M2709.91 2240.35L2709.91 2368.26M2709.91 2368.26L2702.1 2368.26M2702.1 2368.26L2702.1 2376.85M2702.1 2376.85L2645.87 2376.85M2645.87 2376.85L2645.87 2365.6M2645.87 2365.6L2534.26 2368.26M2534.26 2368.26L2534.26 2305.97M2534.26 2305.97L2524.89 2305.97M2524.89 2305.97L2524.89 2249.73M2524.89 2249.73L2534.26 2249.73M2534.26 2249.73L2534.26 2240.35M2534.26 2240.35L2568.63 2240.35M2568.63 2240.35L2568.63 2230.98M2568.63 2230.98L2534.26 2230.98M2534.26 2230.98L2534.26 2024.77M2534.26 2024.77L2524.89 2024.77M2524.89 2024.77L2524.89 1968.54" fill="none" stroke="black" stroke-width="1"/>
  </g>
  <g>
   <path d="M2718.5 2049.57L2718.5 2368.26M2718.5 2368.26L2726.3 2368.26M2726.3 2368.26L2726.3 2376.85M2726.3 2376.85L2782.54 2376.85M2782.54 2376.85L2782.54 2368.26M2782.54 2368.26L2848.3 2368.26M2848.3 2368.26L2848.3 2261.83M2848.3 2261.83L2808.32 2261.83M2808.32 2261.83L2808.32 2253.24M2808.32 2253.24L2885.8 2253.24M2885.8 2253.24L2885.8 2049.57M2885.8 2049.57L2718.5 2049.57" fill="none" stroke="black" stroke-width="1"/>
  </g>
  <g>
   <path d="M3061.69 2049.57L3061.69 2368.26M3061.69 2368.26L3053.89 2368.26M3053.89 2368.26L3053.89 2376.85M3053.89 2376.85L2997.65 2376.85M2997.65 2376.85L2997.65 2368.26M2997.65 2368.26L2931.88 2368.26M2931.88 2368.26L2931.88 2261.83M2931.88 2261.83L2971.86 2261.83M2971.86 2261.83L2971.86 2253.24M2971.86 2253.24L2894.39 2253.24M2894.39 2253.24L2894.39 2049.57M2894.39 2049.57L3061.69 2049.57" fill="none" stroke="black" stroke-width="1"/>
  </g>
  <g>
   <path d="M2366.32 2472.63L2366.32 2464.18M2366.32 2464.18L2374.92 2464.18M2374.92 2464.18L2373.52 2407.94M2373.52 2407.94L2366.32 2407.94M2366.32 2407.94L2366.32 2333.01M2366.32 2333.01L2263.61 2333.01M2263.61 2333.01L2263.61 2389.05M2263.61 2389.05L2255.02 2389.05M2255.02 2389.05L2255.02 2295.52M2255.02 2295.52L2085.33 2295.52M2085.33 2295.52L2085.33 2472.63M2085.33 2472.63L2366.32 2472.63" fill="none" stroke="black" stroke-width="1"/>
  </g>
  <g>
   <path d="M1097.35 667.34L1097.35 1345.72M1097.35 1345.72L1110.63 1345.72M1110.63 1345.72L1110.63 1405.08M1110.63 1405.08L1097.35 1405.08M1097.35 1405.08L1097.35 3046.44M1097.35 3046.44L2085.33 3046.44M2085.33 3046.44L2085.33 2946.65M2085.33 2946.65L2568.53 2946.65M2568.53 2946.65L2568.53 3046.44M2568.53 3046.44L3555.04 3046.44M3555.04 3046.44L3555.04 2623.48M3555.04 2623.48L4079.64 2623.48M4079.64 2623.48L4079.64 667.34M4079.64 667.34L2013.23 667.34M2013.23 667.34L2013.23 671.25M2013.23 671.25L1950.74 671.25M1950.74 671.25L1950.74 667.34M1950.74 667.34L1097.35 667.34" fill="none" stroke="black" stroke-width="1"/>
  </g>
 </g>
 <circle cx="1962.999948" cy="2920.999922" r="10"/>
 <text x="1907.999948" y="2960.999922">
  71ae6a
 </text>
 <circle cx="2527.999933" cy="2537.999932" r="10"/>
 <text x="2472.999933" y="2577.999932">
  71b1be
 </text>
 <circle cx="3012.99992" cy="751.9999799" r="10"/>
 <text x="2957.99992" y="791.9999799">
  71b264
 </text>
 <circle cx="2345.999937" cy="2720.999927" r="10"/>
 <text x="2290.999937" y="2760.999927">
  71b72e
 </text>
 <circle cx="2349.999937" cy="785.999979" r="10"/>
 <text x="2294.999937" y="825.999979">
  71b306
 </text>
 <circle cx="3276.999913" cy="2175.999942" r="10"/>
 <text x="3221.999913" y="2215.999942">
  71b1e0
 </text>
 <circle cx="3234.999914" cy="2696.999928" r="10"/>
 <text x="3179.999914" y="2736.999928">
  71b162
 </text>
 <circle cx="1427.999962" cy="2889.999923" r="10"/>
 <text x="1372.999962" y="2929.999923">
  71b1b0
 </text>
 <circle cx="1579.999958" cy="2760.999926" r="10"/>
 <text x="1524.999958" y="2800.999926">
  71b1d4
 </text>
 <circle cx="3390.999909" cy="2478.999934" r="10"/>
 <text x="3335.999909" y="2518.999934">
  71b234
 </text>
 <circle cx="2352.999937" cy="2564.999932" r="10"/>
 <text x="2297.999937" y="2604.999932">
  71b740
 </text>
 <circle cx="3826.999898" cy="1646.999956" r="10"/>
 <text x="3771.999898" y="1686.999956">
  71b038
 </text>
 <circle cx="2345.999937" cy="2869.999923" r="10"/>
 <text x="2290.999937" y="2909.999923">
  71b648
 </text>
 <circle cx="2159.999942" cy="2720.999927" r="10"/>
 <text x="2104.999942" y="2760.999927">
  71b702
 </text>
 <circle cx="2163.999942" cy="2865.999923" r="10"/>
 <text x="2108.999942" y="2905.999923">
  71b6e4
 </text>
 <circle cx="3619.999903" cy="1572.999958" r="10"/>
 <text x="3564.999903" y="1612.999958">
  71afc2
 </text>
 <circle cx="3359.99991" cy="1118.99997" r="10"/>
 <text x="3304.99991" y="1158.99997">
  71aedc
 </text>
 <circle cx="2457.999934" cy="2634.99993" r="10"/>
 <text x="2402.999934" y="2674.99993">
  71b73c
 </text>
 <circle cx="2537.999932" cy="2865.999923" r="10"/>
 <text x="2482.999932" y="2905.999923">
  71b73a
 </text>
 <circle cx="3826.999898" cy="1719.999954" r="10"/>
 <text x="3771.999898" y="1759.999954">
  71b07c
 </text>
 <circle cx="3499.999907" cy="1118.99997" r="10"/>
 <text x="3444.999907" y="1158.99997">
  71aa06
 </text>
 <circle cx="3390.999909" cy="2324.999938" r="10"/>
 <text x="3335.999909" y="2364.999938">
  71b1a4
 </text>
 <circle cx="3272.999913" cy="1566.999958" r="10"/>
 <text x="3217.999913" y="1606.999958">
  71aed0
 </text>
 <circle cx="3942.999895" cy="1641.999956" r="10"/>
 <text x="3887.999895" y="1681.999956">
  71b01c
 </text>
 <circle cx="3619.999903" cy="1339.999964" r="10"/>
 <text x="3564.999903" y="1379.999964">
  71afca
 </text>
 <circle cx="3946.999895" cy="1345.999964" r="10"/>
 <text x="3891.999895" y="1385.999964">
  71b70c
 </text>
 <circle cx="3019.999919" cy="1352.999964" r="10"/>
 <text x="2964.999919" y="1392.999964">
  71b2b0
 </text>
 <circle cx="1160.999969" cy="2925.999922" r="10"/>
 <text x="1105.999969" y="2965.999922">
  71b178
 </text>
 <circle cx="2016.999946" cy="2927.999922" r="10"/>
 <text x="1961.999946" y="2967.999922">
  71ae68
 </text>
 <circle cx="3879.999896" cy="1352.999964" r="10"/>
 <text x="3824.999896" y="1392.999964">
  71b74c
 </text>
 <circle cx="3506.999906" cy="1572.999958" r="10"/>
 <text x="3451.999906" y="1612.999958">
  71b010
 </text>
 <circle cx="3526.999906" cy="1339.999964" r="10"/>
 <text x="3471.999906" y="1379.999964">
  71b06c
 </text>
 <circle cx="3873.999897" cy="1505.99996" r="10"/>
 <text x="3818.999897" y="1545.99996">
  71b4ea
 </text>
 <circle cx="3935.999895" cy="1726.999954" r="10"/>
 <text x="3880.999895" y="1766.999954">
  71b0b6
 </text>
 <circle cx="1276.999966" cy="2927.999922" r="10"/>
 <text x="1221.999966" y="2967.999922">
  71b00e
 </text>
 <circle cx="2302.999939" cy="938.9999749" r="10"/>
 <text x="2247.999939" y="978.9999749">
  71b2d2
 </text>
 <circle cx="1762.999953" cy="2900.999923" r="10"/>
 <text x="1707.999953" y="2940.999923">
  71afc8
 </text>
 <circle cx="2419.999935" cy="2539.999932" r="10"/>
 <text x="2364.999935" y="2579.999932">
  71b1f2
 </text>
 <circle cx="1606.999957" cy="2192.999941" r="10"/>
 <text x="1551.999957" y="2232.999941">
  96148
 </text>
 <circle cx="2507.999933" cy="2718.999927" r="10"/>
 <text x="2452.999933" y="2758.999927">
  71b220
 </text>
 <circle cx="3164.999915" cy="1949.999948" r="10"/>
 <text x="3109.999915" y="1989.999948">
  71b1fc
 </text>
 <circle cx="3388.99991" cy="1948.999948" r="10"/>
 <text x="3333.99991" y="1988.999948">
  71b202
 </text>
 <circle cx="3167.999915" cy="2326.999938" r="10"/>
 <text x="3112.999915" y="2366.999938">
  71b208
 </text>
 <circle cx="3614.999903" cy="2175.999942" r="10"/>
 <text x="3559.999903" y="2215.999942">
  71b1ee
 </text>
 <circle cx="3014.99992" cy="1801.999952" r="10"/>
 <text x="2959.99992" y="1841.999952">
  71b300
 </text>
 <circle cx="2778.999926" cy="892.9999762" r="10"/>
 <text x="2723.999926" y="932.9999762">
  71b2de
 </text>
 <circle cx="2892.999923" cy="765.9999795" r="10"/>
 <text x="2837.999923" y="805.9999795">
  71b29e
 </text>
 <circle cx="2781.999926" cy="1348.999964" r="10"/>
 <text x="2726.999926" y="1388.999964">
  71b25e
 </text>
 <circle cx="3005.99992" cy="905.9999758" r="10"/>
 <text x="2950.99992" y="945.9999758">
  71b298
 </text>
 <circle cx="2679.999928" cy="1352.999964" r="10"/>
 <text x="2624.999928" y="1392.999964">
  71b2be
 </text>
 <circle cx="2485.999934" cy="778.9999792" r="10"/>
 <text x="2430.999934" y="818.9999792">
  71b274
 </text>
 <circle cx="1975.999947" cy="2537.999932" r="10"/>
 <text x="1920.999947" y="2577.999932">
  71b226
 </text>
 <circle cx="2892.999923" cy="898.999976" r="10"/>
 <text x="2837.999923" y="938.999976">
  71b2b8
 </text>
 <circle cx="2901.999923" cy="1798.999952" r="10"/>
 <text x="2846.999923" y="1838.999952">
  71b26a
 </text>
 <circle cx="2665.999929" cy="745.9999801" r="10"/>
 <text x="2610.999929" y="785.9999801">
  71b2b4
 </text>
 <circle cx="2676.999929" cy="1574.999958" r="10"/>
 <text x="2621.999929" y="1614.999958">
  71b2ce
 </text>
 <circle cx="2901.999923" cy="1125.99997" r="10"/>
 <text x="2846.999923" y="1165.99997">
  71b2a2
 </text>
 <circle cx="2673.999929" cy="894.9999761" r="10"/>
 <text x="2618.999929" y="934.9999761">
  71b2d8
 </text>
 <circle cx="2785.999926" cy="751.9999799" r="10"/>
 <text x="2730.999926" y="791.9999799">
  71b310
 </text>
 <circle cx="2370.999937" cy="1309.999965" r="10"/>
 <text x="2315.999937" y="1349.999965">
  71b28e
 </text>
 <circle cx="1608.999957" cy="2341.999937" r="10"/>
 <text x="1553.999957" y="2381.999937">
  71b1bc
 </text>
 <circle cx="1429.999962" cy="2187.999942" r="10"/>
 <text x="1374.999962" y="2227.999942">
  71b1a8
 </text>
 <circle cx="2162.999942" cy="1065.999972" r="10"/>
 <text x="2107.999942" y="1105.999972">
  71b24e
 </text>
 <circle cx="2485.999934" cy="932.9999751" r="10"/>
 <text x="2430.999934" y="972.9999751">
  71b2f4
 </text>
 <circle cx="2298.999939" cy="1229.999967" r="10"/>
 <text x="2243.999939" y="1269.999967">
  71b250
 </text>
 <circle cx="2492.999933" cy="1078.999971" r="10"/>
 <text x="2437.999933" y="1118.999971">
  71b2a8
 </text>
 <circle cx="3052.999918" cy="1132.99997" r="10"/>
 <text x="2997.999918" y="1172.99997">
  71b308
 </text>
 <circle cx="2156.999942" cy="1225.999967" r="10"/>
 <text x="2101.999942" y="1265.999967">
  71b286
 </text>
 <circle cx="2718.999927" cy="1118.99997" r="10"/>
 <text x="2663.999927" y="1158.99997">
  71b268
 </text>
 <circle cx="2302.999939" cy="1072.999971" r="10"/>
 <text x="2247.999939" y="1112.999971">
  71ad9a
 </text>
 <circle cx="2136.999943" cy="811.9999783" r="10"/>
 <text x="2081.999943" y="851.9999783">
  71b29c
 </text>
 <circle cx="3389.999909" cy="2175.999942" r="10"/>
 <text x="3334.999909" y="2215.999942">
  71b1ae
 </text>
 <circle cx="1205.999968" cy="2535.999932" r="10"/>
 <text x="1150.999968" y="2575.999932">
  71b1d8
 </text>
 <circle cx="3058.999918" cy="1560.999958" r="10"/>
 <text x="3003.999918" y="1600.999958">
  71b2e0
 </text>
 <circle cx="1417.999962" cy="2343.999937" r="10"/>
 <text x="1362.999962" y="2383.999937">
  71b1cc
 </text>
 <circle cx="1768.999953" cy="2383.999936" r="10"/>
 <text x="1713.999953" y="2423.999936">
  71b204
 </text>
 <circle cx="2898.999923" cy="1594.999957" r="10"/>
 <text x="2843.999923" y="1634.999957">
  71b2dc
 </text>
 <circle cx="3578.999904" cy="1951.999948" r="10"/>
 <text x="3523.999904" y="1991.999948">
  71b238
 </text>
 <circle cx="3279.999912" cy="1125.99997" r="10"/>
 <text x="3224.999912" y="1165.99997">
  71aff8
 </text>
 <circle cx="1980.999947" cy="2758.999926" r="10"/>
 <text x="1925.999947" y="2798.999926">
  71a9de
 </text>
 <circle cx="3285.999912" cy="1799.999952" r="10"/>
 <text x="3230.999912" y="1839.999952">
  71aa1c
 </text>
 <circle cx="3279.999912" cy="1339.999964" r="10"/>
 <text x="3224.999912" y="1379.999964">
  71a9ca
 </text>
 <circle cx="1622.999957" cy="2916.999922" r="10"/>
 <text x="1567.999957" y="2956.999922">
  71aed2
 </text>
 <circle cx="1411.999962" cy="2752.999926" r="10"/>
 <text x="1356.999962" y="2792.999926">
  71aede
 </text>
 <circle cx="1575.999958" cy="2533.999932" r="10"/>
 <text x="1520.999958" y="2573.999932">
  71afde
 </text>
 <circle cx="1233.999967" cy="2752.999926" r="10"/>
 <text x="1178.999967" y="2792.999926">
  71ae76
 </text>
 <circle cx="1521.999959" cy="2945.999921" r="10"/>
 <text x="1466.999959" y="2985.999921">
  71afee
 </text>
 <circle cx="1790.999952" cy="2752.999926" r="10"/>
 <text x="1735.999952" y="2792.999926">
  71b10c
 </text>
 <circle cx="1381.999963" cy="2531.999932" r="10"/>
 <text x="1326.999963" y="2571.999932">
  71b114
 </text>
 <circle cx="2041.999945" cy="1941.999948" r="10"/>
 <text x="1986.999945" y="1981.999948">
  71b2bc
 </text>
 <circle cx="1829.999951" cy="1961.999948" r="10"/>
 <text x="1774.999951" y="2001.999948">
  71b254
 </text>
 <circle cx="2233.99994" cy="1947.999948" r="10"/>
 <text x="2178.99994" y="1987.999948">
  71b290
 </text>
 <circle cx="2254.99994" cy="1989.999947" r="10"/>
 <text x="2199.99994" y="2029.999947">
  71b26c
 </text>
 <circle cx="2233.99994" cy="1468.999961" r="10"/>
 <text x="2178.99994" y="1508.999961">
  71b2ae
 </text>
 <circle cx="1692.999955" cy="1797.999952" r="10"/>
 <text x="1637.999955" y="1837.999952">
  71b284
 </text>
 <circle cx="1328.999965" cy="1694.999955" r="10"/>
 <text x="1273.999965" y="1734.999955">
  71b296
 </text>
 <circle cx="2233.99994" cy="1769.999953" r="10"/>
 <text x="2178.99994" y="1809.999953">
  71b294
 </text>
 <circle cx="2329.999938" cy="1694.999955" r="10"/>
 <text x="2274.999938" y="1734.999955">
  71b2ea
 </text>
 <circle cx="1527.999959" cy="1694.999955" r="10"/>
 <text x="1472.999959" y="1734.999955">
  71b252
 </text>
 <circle cx="1191.999968" cy="837.9999776" r="10"/>
 <text x="1136.999968" y="877.9999776">
  71b30a
 </text>
 <circle cx="1184.999968" cy="720.9999807" r="10"/>
 <text x="1129.999968" y="760.9999807">
  71b2a0
 </text>
 <circle cx="1342.999964" cy="1070.999971" r="10"/>
 <text x="1287.999964" y="1110.999971">
  71b27c
 </text>
 <circle cx="1788.999952" cy="789.9999789" r="10"/>
 <text x="1733.999952" y="829.9999789">
  71b258
 </text>
 <circle cx="2432.999935" cy="1468.999961" r="10"/>
 <text x="2377.999935" y="1508.999961">
  71b2cc
 </text>
 <circle cx="1328.999965" cy="1235.999967" r="10"/>
 <text x="1273.999965" y="1275.999967">
  71b292
 </text>
 <circle cx="1733.999954" cy="1070.999971" r="10"/>
 <text x="1678.999954" y="1110.999971">
  71b260
 </text>
 <circle cx="1986.999947" cy="1262.999966" r="10"/>
 <text x="1931.999947" y="1302.999966">
  71b2d6
 </text>
 <circle cx="1726.999954" cy="1351.999964" r="10"/>
 <text x="1671.999954" y="1391.999964">
  71b24a
 </text>
 <circle cx="2000.999947" cy="1132.99997" r="10"/>
 <text x="1945.999947" y="1172.99997">
  71b278
 </text>
 <circle cx="1527.999959" cy="1070.999971" r="10"/>
 <text x="1472.999959" y="1110.999971">
  71b2fe
 </text>
 <circle cx="1733.999954" cy="1262.999966" r="10"/>
 <text x="1678.999954" y="1302.999966">
  71b304
 </text>
 <circle cx="2528.999932" cy="1557.999958" r="10"/>
 <text x="2473.999932" y="1597.999958">
  71b2d0
 </text>
 <circle cx="1198.999968" cy="1426.999962" r="10"/>
 <text x="1143.999968" y="1466.999962">
  71b2c4
 </text>
 <circle cx="1527.999959" cy="1358.999964" r="10"/>
 <text x="1472.999959" y="1398.999964">
  71b302
 </text>
 <circle cx="1733.999954" cy="1557.999958" r="10"/>
 <text x="1678.999954" y="1597.999958">
  71b30e
 </text>
 <circle cx="2528.999932" cy="1694.999955" r="10"/>
 <text x="2473.999932" y="1734.999955">
  71b29a
 </text>
 <circle cx="1315.999965" cy="1543.999959" r="10"/>
 <text x="1260.999965" y="1583.999959">
  71b2f6
 </text>
 <circle cx="1527.999959" cy="1550.999959" r="10"/>
 <text x="1472.999959" y="1590.999959">
  71b2ca
 </text>
 <circle cx="1733.999954" cy="1721.999954" r="10"/>
 <text x="1678.999954" y="1761.999954">
  71b2d4
 </text>
 <circle cx="1527.999959" cy="1241.999967" r="10"/>
 <text x="1472.999959" y="1281.999967">
  71b2ec
 </text>
 <circle cx="1191.999968" cy="1008.999973" r="10"/>
 <text x="1136.999968" y="1048.999973">
  71b272
 </text>
 <circle cx="1205.999968" cy="1543.999959" r="10"/>
 <text x="1150.999968" y="1583.999959">
  71b2a6
 </text>
 <circle cx="1589.999958" cy="1947.999948" r="10"/>
 <text x="1534.999958" y="1987.999948">
  71b2f8
 </text>
 <circle cx="2082.999944" cy="1989.999947" r="10"/>
 <text x="2027.999944" y="2029.999947">
  71b2da
 </text>
 <circle cx="2158.999942" cy="1694.999955" r="10"/>
 <text x="2103.999942" y="1734.999955">
  71b2e2
 </text>
 <circle cx="1328.999965" cy="1961.999948" r="10"/>
 <text x="1273.999965" y="2001.999948">
  71b2ba
 </text>
 <circle cx="1801.999952" cy="878.9999765" r="10"/>
 <text x="1746.999952" y="918.9999765">
  71b26e
 </text>
 <circle cx="1465.999961" cy="1995.999947" r="10"/>
 <text x="1410.999961" y="2035.999947">
  71b288
 </text>
 <circle cx="2158.999942" cy="1564.999958" r="10"/>
 <text x="2103.999942" y="1604.999958">
  71b2c2
 </text>
 <circle cx="1157.999969" cy="1056.999972" r="10"/>
 <text x="1102.999969" y="1096.999972">
  71b276
 </text>
 <circle cx="2501.999933" cy="1461.999961" r="10"/>
 <text x="2446.999933" y="1501.999961">
  71b24c
 </text>
 <circle cx="1740.999954" cy="2193.999941" r="10"/>
 <text x="1685.999954" y="2233.999941">
  71ae58
 </text>
 <circle cx="1930.999948" cy="2193.999941" r="10"/>
 <text x="1875.999948" y="2233.999941">
  71aa60
 </text>
 <circle cx="1228.999967" cy="2197.999941" r="10"/>
 <text x="1173.999967" y="2237.999941">
  71ab6a
 </text>
 <circle cx="1971.999947" cy="2353.999937" r="10"/>
 <text x="1916.999947" y="2393.999937">
  71b05e
 </text>
 <circle cx="2834.999924" cy="1125.99997" r="10"/>
 <text x="2779.999924" y="1165.99997">
  71b266
 </text>
 <circle cx="3165.999915" cy="1345.999964" r="10"/>
 <text x="3110.999915" y="1385.999964">
  71b7a0
 </text>
 <circle cx="3165.999915" cy="1570.999958" r="10"/>
 <text x="3110.999915" y="1610.999958">
  71b8fc
 </text>
 <circle cx="3388.99991" cy="1804.999952" r="10"/>
 <text x="3333.99991" y="1844.999952">
  71b64e
 </text>
 <circle cx="3499.999907" cy="1804.999952" r="10"/>
 <text x="3444.999907" y="1844.999952">
  71b150
 </text>
 <circle cx="3615.999903" cy="1804.999952" r="10"/>
 <text x="3560.999903" y="1844.999952">
  71af28
 </text>
 <circle cx="3815.999898" cy="1225.999967" r="10"/>
 <text x="3760.999898" y="1265.999967">
  71aeee
 </text>
 <circle cx="3935.999895" cy="1225.999967" r="10"/>
 <text x="3880.999895" y="1265.999967">
  71afb2
 </text>
 <circle cx="3821.999898" cy="1156.999969" r="10"/>
 <text x="3766.999898" y="1196.999969">
  71b174
 </text>
 <circle cx="3615.999903" cy="1117.99997" r="10"/>
 <text x="3560.999903" y="1157.99997">
  71b804
 </text>
 <circle cx="3982.999894" cy="1098.999971" r="10"/>
 <text x="3927.999894" y="1138.999971">
  71b4da
 </text>
 <circle cx="3941.999895" cy="1505.99996" r="10"/>
 <text x="3886.999895" y="1545.99996">
  71b72a
 </text>
 <circle cx="3386.99991" cy="1345.999964" r="10"/>
 <text x="3331.99991" y="1385.999964">
  71aeec
 </text>
 <circle cx="2899.999923" cy="1352.999964" r="10"/>
 <text x="2844.999923" y="1392.999964">
  71b2b2
 </text>
 <circle cx="2488.999934" cy="1223.999967" r="10"/>
 <text x="2433.999934" y="1263.999967">
  71b2b6
 </text>
 <circle cx="2782.999926" cy="1775.999953" r="10"/>
 <text x="2727.999926" y="1815.999953">
  71b25c
 </text>
 <circle cx="3163.999916" cy="1799.999952" r="10"/>
 <text x="3108.999916" y="1839.999952">
  71b086
 </text>
 <circle cx="3010.99992" cy="1939.999948" r="10"/>
 <text x="2955.99992" y="1979.999948">
  71b9a6
 </text>
 <circle cx="3277.999912" cy="1919.999949" r="10"/>
 <text x="3222.999912" y="1959.999949">
  71b520
 </text>
 <circle cx="3510.999906" cy="2353.999937" r="10"/>
 <text x="3455.999906" y="2393.999937">
  71b10a
 </text>
 <circle cx="3277.999912" cy="2306.999938" r="10"/>
 <text x="3222.999912" y="2346.999938">
  71b06e
 </text>
 <circle cx="3170.999915" cy="2446.999935" r="10"/>
 <text x="3115.999915" y="2486.999935">
  71b176
 </text>
 <circle cx="3397.999909" cy="2727.999927" r="10"/>
 <text x="3342.999909" y="2767.999927">
  71b10e
 </text>
 <circle cx="3056.999918" cy="2727.999927" r="10"/>
 <text x="3001.999918" y="2767.999927">
  71b122
 </text>
 <circle cx="2936.999922" cy="2727.999927" r="10"/>
 <text x="2881.999922" y="2767.999927">
  71b05a
 </text>
 <circle cx="2669.999929" cy="2700.999928" r="10"/>
 <text x="2614.999929" y="2740.999928">
  71b6c4
 </text>
 <circle cx="3937.999895" cy="2513.999933" r="10"/>
 <text x="3882.999895" y="2553.999933">
  71b47a
 </text>
 <circle cx="3757.9999" cy="2346.999937" r="10"/>
 <text x="3702.9999" y="2386.999937">
  71ae5a
 </text>
 <circle cx="3457.999908" cy="1924.999949" r="10"/>
 <text x="3402.999908" y="1964.999949">
  71b4f8
 </text>
 <circle cx="3497.999907" cy="2191.999941" r="10"/>
 <text x="3442.999907" y="2231.999941">
  71b0be
 </text>
 <circle cx="3830.999898" cy="1977.999947" r="10"/>
 <text x="3775.999898" y="2017.999947">
  71b5b4
 </text>
 <circle cx="3944.999895" cy="1977.999947" r="10"/>
 <text x="3889.999895" y="2017.999947">
  71b04c
 </text>
 <circle cx="2870.999923" cy="1937.999948" r="10"/>
 <text x="2815.999923" y="1977.999948">
  71aaae
 </text>
 <circle cx="3989.999893" cy="2346.999937" r="10"/>
 <text x="3934.999893" y="2386.999937">
  71b672
 </text>
 <circle cx="3989.999893" cy="2200.999941" r="10"/>
 <text x="3934.999893" y="2240.999941">
  71b052
 </text>
 <circle cx="3877.999896" cy="2208.999941" r="10"/>
 <text x="3822.999896" y="2248.999941">
  71ae8a
 </text>
 <circle cx="3764.999899" cy="2197.999941" r="10"/>
 <text x="3709.999899" y="2237.999941">
  71aeaa
 </text>
 <circle cx="2788.999926" cy="1571.999958" r="10"/>
 <text x="2733.999926" y="1611.999958">
  71b2c6
 </text>
 <circle cx="3163.999916" cy="2204.999941" r="10"/>
 <text x="3108.999916" y="2244.999941">
  71b1b8
 </text>
 <circle cx="3684.999902" cy="1913.999949" r="10"/>
 <text x="3629.999902" y="1953.999949">
  71b1ec
 </text>
 <circle cx="2713.999928" cy="1941.999948" r="10"/>
 <text x="2658.999928" y="1981.999948">
  71b356
 </text>
 <circle cx="3879.999896" cy="2313.999938" r="10"/>
 <text x="3824.999896" y="2353.999938">
  71afa8
 </text>
 <circle cx="3639.999903" cy="2493.999933" r="10"/>
 <text x="3584.999903" y="2533.999933">
  71b896
 </text>
 <circle cx="3786.999899" cy="2480.999934" r="10"/>
 <text x="3731.999899" y="2520.999934">
  71b6d6
 </text>
 <circle cx="3105.999917" cy="2931.999922" r="10"/>
 <text x="3050.999917" y="2971.999922">
  71b9c2
 </text>
 <circle cx="2945.999921" cy="2506.999933" r="10"/>
 <text x="2890.999921" y="2546.999933">
  71aea4
 </text>
 <circle cx="2792.999925" cy="2426.999935" r="10"/>
 <text x="2737.999925" y="2466.999935">
  71aeb8
 </text>
 <circle cx="3499.999907" cy="2729.999927" r="10"/>
 <text x="3444.999907" y="2769.999927">
  71b242
 </text>
 <circle cx="2827.999924" cy="2727.999927" r="10"/>
 <text x="2772.999924" y="2767.999927">
  71b766
 </text>
 <circle cx="2725.999927" cy="2493.999933" r="10"/>
 <text x="2670.999927" y="2533.999933">
  71b662
 </text>
 <circle cx="3041.999919" cy="2506.999933" r="10"/>
 <text x="2986.999919" y="2546.999933">
  71b170
 </text>
 <circle cx="3341.999911" cy="2887.999923" r="10"/>
 <text x="3286.999911" y="2927.999923">
  71b7ae
 </text>
 <circle cx="3461.999908" cy="2894.999923" r="10"/>
 <text x="3406.999908" y="2934.999923">
  71b500
 </text>
 <circle cx="3228.999914" cy="2891.999923" r="10"/>
 <text x="3173.999914" y="2931.999923">
  71b9a2
 </text>
 <circle cx="2825.999925" cy="2958.999921" r="10"/>
 <text x="2770.999925" y="2998.999921">
  71b572
 </text>
 <circle cx="2668.999929" cy="2928.999922" r="10"/>
 <text x="2613.999929" y="2968.999922">
  71b6f8
 </text>
 <circle cx="3054.999918" cy="2958.999921" r="10"/>
 <text x="2999.999918" y="2998.999921">
  71b71c
 </text>
 <circle cx="2939.999922" cy="2889.999923" r="10"/>
 <text x="2884.999922" y="2929.999923">
  71b774
 </text>
</svg>